<svg id="Capa_1" enable-background="new 0 0 512 512" height="512" viewBox="0 0 512 512" width="512" xmlns="http://www.w3.org/2000/svg"><g><g><g><path d="m0 248.198h512v150.302h-512z" fill="#d7fff6"/></g><g><path d="m0 398.499h512v68.001h-512z" fill="#faef93"/></g><g><path d="m0 449.5h512v17h-512z" fill="#e8ab4c"/></g><g><path d="m0 248.198h512v119.94h-512z" fill="#a4d7f5"/></g><g><path d="m0 248.198h512v59.97h-512z" fill="#6e91ef"/></g><g><path d="m421.986 285.514-30.998 33.004-37.001-38.003-33.353 26.048 63.353 63.952 60-64.999z" fill="#f7e0ba"/></g><g><path d="m425.783 288.967-43.283 50.183-44.731-45.969-17.135 13.382 63.353 63.952 60-64.999z" fill="#f0b582"/></g><g><path d="m301.321 108.854-15 14.498h-29.501l-15.165-14.498v-31l15.165-14.166h29.501l15 14.166z" fill="#f7e0ba"/></g><g><path d="m269.13 101.352-5.16-4.492v-33.172h-7.15l-15.165 14.166v31l15.165 14.498h29.501l15-14.498v-7.502z" fill="#f0b582"/></g><g><path d="m257.487 153.015h42l39.5-37.5v-60h30v75l-38 38 23 62v50l-68.501 53.5 23.501 82.501-30 9.499-34-115.5 41.5-30-30.334-89.984h-5.058l-49.608 17.986-67-54.502 20-22.499 50.5 40.5z" fill="#f7e0ba"/></g><g><g><path d="m279.195 337.381 23.055 78.321 5.967-1.89.77 2.704-30 9.499-27.25-92.57 42.804-30.445 8.054 17.653z" fill="#f0b582"/></g><g><path d="m286.487 280.515-30.334-89.984h-5.058l-49.608 17.986-67-54.502 20-22.499 8.229 6.599-4.966 5.587 65.999 53.501 46.738-16.188h5.057l31.335 90.985z" fill="#f0b582"/></g></g><g><path d="m353.987 230.515v50l-51.392 40.138-21.607-57.139z" fill="#c7efbc"/></g><g><path d="m312.94 285.321-11.707-30.959-20.245 9.152 21.607 57.139 51.392-40.138v-27.252z" fill="#7bdaa9"/></g><g><circle cx="181" cy="82.896" fill="#5fa6b0" r="15"/></g><g><path d="m481.167 90.5h15v15h-15z" fill="#a4d7f5"/></g><g><path d="m421.5 45.5h15v15h-15z" fill="#a4d7f5"/></g><g><path d="m91.5 90.5h15v15h-15z" fill="#a4d7f5"/></g><g><path d="m15.5 60.396h15v15h-15z" fill="#a4d7f5"/></g></g><g><path d="m289.353 130.852 19.468-18.815v-37.415l-19.519-18.435h-35.439l-19.708 18.41v37.463l19.657 18.791h35.541zm-40.198-49.741 10.624-9.924h23.561l10.481 9.899v24.586l-10.532 10.179h-23.46l-10.673-10.203v-24.537z"/><path d="m319.998 316.577 64.18 64.787 70.445-76.314-33.053-30.05-30.68 32.666-29.404-30.2v-48.298l-21.795-58.752 36.795-36.795v-85.606h-45v64.278l-34.993 33.222h-40.322l-49.776 18.017-52.776-42.326-29.943 33.683 76.374 62.128 50.896-18.453 26.668 79.111-41.32 29.87 37.659 127.932 44.242-14.009-24.112-84.649zm-26.471-38.653-3.18-9.435 56.139-26.198v34.564l-40.647 31.746zm97.559 51.445 31.314-33.342 10.949 9.954-49.555 53.684-51.893-52.385 21.402-16.715zm-141.308-146.339-46.854 16.987-57.626-46.876 10.058-11.315 48.224 38.676 55.222-19.987h43.678l44.007-41.778v-55.722h15v64.394l-39.205 39.205 22.269 60.029-59.024 27.545-23.987-71.157h-11.762zm49.999 228.534-15.758 4.989-30.34-103.068 29.422-21.27 10.433 25.996-16.645 13z"/><path d="m181 105.396c12.407 0 22.5-10.094 22.5-22.5s-10.093-22.5-22.5-22.5-22.5 10.094-22.5 22.5 10.093 22.5 22.5 22.5zm0-30c4.136 0 7.5 3.364 7.5 7.5s-3.364 7.5-7.5 7.5-7.5-3.364-7.5-7.5 3.364-7.5 7.5-7.5z"/><path d="m481 390.999h31v15h-31z"/><path d="m451 390.999h15v15h-15z"/><path d="m331 390.999h105v15h-105z"/><path d="m0 390.999h241v15h-241z"/><path d="m421 360.638h91v15h-91z"/><path d="m76 360.638h157.004v15h-157.004z"/><path d="m46 360.638h15v15h-15z"/><path d="m0 360.638h31v15h-31z"/><path d="m469.002 300.668h42.998v15h-42.998z"/><path d="m181 300.668h40.998v15h-40.998z"/><path d="m0 300.668h166v15h-166z"/><path d="m376 240.697h136v15h-136z"/><path d="m76 240.697h180v15h-180z"/><path d="m46 240.697h15v15h-15z"/><path d="m0 240.697h31v15h-31z"/><path d="m46 180.5h15v-15h15v-15h-15v-15h-15v15h-15v15h15z"/><path d="m436 195.509h15v-15h15v-15h-15v-15h-15v15h-15v15h15z"/></g></g></svg>