<svg height="477.60001pt" viewBox="0 0 477.60001 477.60001" width="477.60001pt" xmlns="http://www.w3.org/2000/svg"><path d="m477.601562 238.800781c0 131.886719-106.914062 238.800781-238.800781 238.800781s-238.800781-106.914062-238.800781-238.800781 106.914062-238.800781 238.800781-238.800781 238.800781 106.914062 238.800781 238.800781zm0 0" fill="#382b73"/><path d="m445.398438 238.800781c0 114.101563-92.496094 206.597657-206.597657 206.597657-114.101562 0-206.597656-92.496094-206.597656-206.597657 0-114.101562 92.496094-206.597656 206.597656-206.597656 114.101563 0 206.597657 92.496094 206.597657 206.597656zm0 0" fill="#473080"/><path d="m390.957031 155.429688c-.023437-.007813-.050781-.015626-.074219-.019532-.363281-.078125-.734374-.136718-1.109374-.179687-.058594-.007813-.113282-.019531-.171876-.027344-.425781-.042969-.863281-.070313-1.300781-.070313-2.554687 0-4.929687.777344-6.898437 2.105469-.980469.664063-1.867188 1.46875-2.621094 2.382813-1.757812 2.132812-2.816406 4.867187-2.816406 7.847656v15.664062h-124.484375l-4.710938-7.445312c-3.703125-5.847656-12.234375-5.847656-15.9375 0l-4.710937 7.445312h-124.488282v-15.664062c0-2.980469-1.058593-5.714844-2.816406-7.847656-.753906-.914063-1.632812-1.71875-2.621094-2.382813-1.96875-1.328125-4.339843-2.105469-6.894531-2.105469-.441406 0-.875.023438-1.304687.070313-.058594.007813-.113282.019531-.171875.027344-.375.042969-.746094.101562-1.109375.179687-.023438.003906-.050782.015625-.074219.019532-5.53125 1.214843-9.675781 6.136718-9.675781 12.035156v170.667968c0 5.898438 4.144531 10.820313 9.675781 12.039063.023437.003906.050781.011719.074219.015625.363281.078125.734375.136719 1.109375.179688.058593.007812.113281.019531.171875.027343.429687.046875.863281.070313 1.304687.070313 2.554688 0 4.925781-.777344 6.894531-2.105469.984376-.664063 1.867188-1.46875 2.621094-2.382813 1.761719-2.132812 2.816406-4.867187 2.816406-7.847656v-20.875h274.335938v20.875c0 2.980469 1.058594 5.714844 2.816406 7.847656.753906.914063 1.636719 1.71875 2.621094 2.382813 1.96875 1.328125 4.339844 2.105469 6.894531 2.105469.441407 0 .875-.023438 1.304688-.070313.054687-.007812.113281-.019531.171875-.027343.375-.042969.746094-.101563 1.109375-.179688.023437-.003906.046875-.011719.070312-.015625 5.535157-1.21875 9.679688-6.140625 9.679688-12.039063v-170.667968c-.003907-5.898438-4.148438-10.820313-9.679688-12.035156zm-14.992187 91.703124h-83.980469l-16.375-25.875h100.359375v25.875zm-190.347656 0h-83.984376v-25.875h100.359376zm-83.984376 6.125h80.105469l-16.375 25.875h-63.730469zm210.601563 25.875-16.375-25.875h80.109375v25.875zm63.730469-89.875v25.875h-104.234375l-16.375-25.875zm-153.722656 0-16.375 25.875h-104.234376v-25.875zm-120.609376 121.875v-25.875h60.894532c-.050782.386719-.078125.773438-.078125 1.15625v.003907 7.429687c-.09375 4.972656 3.84375 9.621094 9.4375 9.621094h133.828125c5.59375 0 9.527344-4.648438 9.4375-9.621094v-7.429687s0 0 0-.003907c-.003906-.382812-.03125-.769531-.082032-1.15625h60.894532v25.875zm0 0" fill="#382b73"/><g fill="#fede3a"><path d="m385.238281 175.257812h-294.375c-1.691406 0-3.0625-1.371093-3.0625-3.0625 0-1.691406 1.371094-3.0625 3.0625-3.0625h294.375c1.691407 0 3.0625 1.371094 3.0625 3.0625 0 1.691407-1.371093 3.0625-3.0625 3.0625zm0 0"/><path d="m385.238281 207.257812h-294.375c-1.691406 0-3.0625-1.371093-3.0625-3.0625 0-1.691406 1.371094-3.0625 3.0625-3.0625h294.375c1.691407 0 3.0625 1.371094 3.0625 3.0625 0 1.691407-1.371093 3.0625-3.0625 3.0625zm0 0"/><path d="m385.238281 239.257812h-294.375c-1.691406 0-3.0625-1.371093-3.0625-3.0625 0-1.691406 1.371094-3.0625 3.0625-3.0625h294.375c1.691407 0 3.0625 1.371094 3.0625 3.0625 0 1.691407-1.371093 3.0625-3.0625 3.0625zm0 0"/><path d="m385.238281 271.257812h-294.375c-1.691406 0-3.0625-1.371093-3.0625-3.0625 0-1.691406 1.371094-3.0625 3.0625-3.0625h294.375c1.691407 0 3.0625 1.371094 3.0625 3.0625 0 1.691407-1.371093 3.0625-3.0625 3.0625zm0 0"/><path d="m385.238281 303.257812h-294.375c-1.691406 0-3.0625-1.371093-3.0625-3.0625 0-1.691406 1.371094-3.0625 3.0625-3.0625h294.375c1.691407 0 3.0625 1.371094 3.0625 3.0625 0 1.691407-1.371093 3.0625-3.0625 3.0625zm0 0"/></g><path d="m162.445312 279.84375c-.089843 4.976562 3.84375 9.621094 9.4375 9.621094h133.828126c5.597656 0 9.53125-4.644532 9.4375-9.621094v-7.429688c-.003907-1.679687-.457032-3.398437-1.46875-4.996093l-66.914063-105.730469c-3.703125-5.851562-12.234375-5.851562-15.9375 0l-66.914063 105.730469c-1.011718 1.597656-1.464843 3.316406-1.46875 4.996093zm0 0" fill="#a72973"/><path d="m305.714844 281.890625h-133.828125c-7.429688 0-11.941407-8.195313-7.96875-14.472656l66.914062-105.730469c3.703125-5.847656 12.234375-5.847656 15.9375 0l66.914063 105.730469c3.972656 6.28125-.539063 14.472656-7.96875 14.472656zm0 0" fill="#ef5a9d"/><path d="m222.058594 271.472656c-.183594 1.625 1.832031 2.878906 3.226562 1.617188l32.832032-29.773438c.992187-.894531 1.363281-2.074218 1.257812-3.195312v-6.160156c-.117188-1.894532-1.605469-3.65625-3.851562-3.65625h-9.824219l8.738281-17.53125c.324219-.652344.441406-1.335938.398438-1.988282v-6.164062c-.078126-1.96875-1.671876-3.722656-3.859376-3.722656h-17.589843c-1.464844 0-2.804688.828124-3.457031 2.140624l-17.78125 35.671876c-.328126.652343-.445313 1.335937-.398438 1.988281v6.164062c.074219 1.96875 1.671875 3.722657 3.855469 3.722657h13.59375l-6.941407 13.925781c-.136718.273437-.1875.539062-.199218.800781zm0 0" fill="#e43d91"/><path d="m222.058594 266.425781c-.183594 1.621094 1.832031 2.875 3.226562 1.613281l32.832032-29.769531c.992187-.898437 1.363281-2.078125 1.257812-3.199219v-6.160156c-.117188-1.890625-1.605469-3.652344-3.851562-3.652344h-9.824219l8.738281-17.535156c.324219-.652344.441406-1.335937.398438-1.988281v-6.164063c-.078126-1.96875-1.671876-3.722656-3.859376-3.722656h-17.589843c-1.464844 0-2.804688.828125-3.457031 2.140625l-17.78125 35.667969c-.328126.65625-.445313 1.335938-.398438 1.992188v6.160156c.074219 1.972656 1.671875 3.722656 3.855469 3.722656h13.59375l-6.941407 13.925781c-.136718.273438-.1875.542969-.199218.804688zm0 0" fill="#e7ad27"/><path d="m255.523438 225.253906h-9.835938c-1.4375 0-2.371094-1.511718-1.730469-2.792968l10.476563-21.023438c1.28125-2.570312-.585938-5.589844-3.457032-5.589844h-17.59375c-1.464843 0-2.804687.828125-3.457031 2.140625l-17.78125 35.667969c-1.277343 2.570312.589844 5.589844 3.460938 5.589844h13.605469c1.433593 0 2.367187 1.511718 1.726562 2.792968l-8.679688 17.417969c-.957031 1.914063 1.441407 3.730469 3.027344 2.292969l32.832032-29.769531c2.617187-2.371094.9375-6.726563-2.59375-6.726563zm0 0" fill="#fede3a"/><path d="m89.300781 336.464844c-6.8125 0-12.335937-5.519532-12.335937-12.332032v-170.667968c0-6.8125 5.523437-12.332032 12.335937-12.332032s12.332031 5.519532 12.332031 12.332032v170.667968c0 6.8125-5.519531 12.332032-12.332031 12.332032zm0 0" fill="#ef5a9d"/><path d="m89.300781 141.132812c-1.78125 0-3.472656.386719-5 1.066407 4.316407 1.921875 7.332031 6.238281 7.332031 11.269531v170.664062c0 5.03125-3.015624 9.347657-7.332031 11.269532 1.527344.679687 3.21875 1.066406 5 1.066406 6.8125 0 12.332031-5.523438 12.332031-12.335938v-170.667968c0-6.8125-5.519531-12.332032-12.332031-12.332032zm0 0" fill="#e43d91"/><path d="m388.300781 336.464844c-6.8125 0-12.335937-5.519532-12.335937-12.332032v-170.667968c0-6.8125 5.523437-12.332032 12.335937-12.332032s12.332031 5.519532 12.332031 12.332032v170.667968c0 6.8125-5.519531 12.332032-12.332031 12.332032zm0 0" fill="#ef5a9d"/><path d="m385.964844 324.132812v-170.667968c0-5.027344 3.015625-9.347656 7.335937-11.265625-1.53125-.679688-3.21875-1.066407-5-1.066407-6.8125 0-12.335937 5.519532-12.335937 12.332032v170.667968c0 6.8125 5.523437 12.332032 12.335937 12.332032 1.78125 0 3.46875-.386719 5-1.066406-4.320312-1.917969-7.335937-6.234376-7.335937-11.265626zm0 0" fill="#e43d91"/></svg>