<svg id="Capa_1" enable-background="new 0 0 512.003 512.003" height="512" viewBox="0 0 512.003 512.003" width="512" xmlns="http://www.w3.org/2000/svg"><g><path d="m383.833 297.722c-1.545 0 9.702 1.216-198.79-23.2-9.15-1.079-15.18-10.079-12.69-18.949 12.34-43.99 55.72-71.71 100.91-64.48 22.867 3.664 11.206 1.798 49.93 7.99 41.43 6.63 72.74 40.979 75.6 82.61.6 8.64-6.25 16.029-14.96 16.029z" fill="#e27a4e"/><path d="m383.833 297.722c-1.08 0 7.31.971-92.41-10.72v-93l31.77 5.08c41.43 6.63 72.74 40.979 75.6 82.61.6 8.641-6.25 16.03-14.96 16.03z" fill="#dc455b"/><path d="m87.984 263.004c-7.501 0-13.98-5.616-14.879-13.248l-15.107-128.413-50.338-28.26c-7.224-4.056-9.792-13.199-5.738-20.423 4.057-7.224 13.2-9.793 20.423-5.737l57 32c4.186 2.35 6.994 6.561 7.555 11.327l16 136c1.049 8.921-5.918 16.754-14.916 16.754z" fill="#90776f"/><path d="m116.241 366.346-9.75-87.78c-.894-8.043-8.016-13.909-16.073-13.299-9.89.771-29.241 3.586-47.735 13.776-24.363 13.426-39.082 35.245-42.564 63.098-1.078 8.608 5.36 16.332 14.011 16.836 30.02 1.749 59.014 9.741 79.549 21.926 10.573 6.273 23.93-2.237 22.562-14.557z" fill="#f3d652"/><path d="m512.003 296.003v80c0 4.14-1.71 8.09-4.72 10.92l-17 16c-2.78 2.62-6.46 4.08-10.28 4.08h-376c-7.64 0-14.06-5.75-14.91-13.34-17.56-158.09-14.08-127.11-18.25-163.11 56.089 7.078-14.713-1.415 427.91 50.55 7.55.89 13.25 7.289 13.25 14.9z" fill="#a4d772"/><path d="m512.003 296.003v80c0 4.14-1.71 8.09-4.72 10.92l-17 16c-2.78 2.62-6.46 4.08-10.28 4.08h-188.58v-150.22c52.45 6.149 119.94 14.06 207.33 24.319 7.55.891 13.25 7.29 13.25 14.901z" fill="#7baf6b"/><circle cx="416.003" cy="392.003" fill="#674d55" r="55"/><circle cx="176.003" cy="392.003" fill="#90776f" r="55"/></g></svg>