<?xml version="1.0"?>
<svg xmlns="http://www.w3.org/2000/svg" height="512px" viewBox="0 0 496 496" width="512px"><path d="m472 192h-16c-10.414062 0-19.214844 6.710938-22.527344 16h-81.472656v16h80v32h-368v-32h82.976562v-16h-84.449218c-3.3125-9.289062-12.113282-16-22.527344-16h-16c-13.230469 0-24 10.769531-24 24v256c0 13.230469 10.769531 24 24 24h16c13.230469 0 24-10.769531 24-24v-8h368v8c0 13.230469 10.769531 24 24 24h16c13.230469 0 24-10.769531 24-24v-256c0-13.230469-10.769531-24-24-24zm-40 80v32h-368v-32zm-368 80v-32h368v32zm368 16v32h-368v-32zm-384 104c0 4.414062-3.585938 8-8 8h-16c-4.414062 0-8-3.585938-8-8v-256c0-4.40625 3.585938-8 8-8h16c4.414062 0 8 3.59375 8 8zm16-24v-32h368v32zm416 24c0 4.414062-3.585938 8-8 8h-16c-4.414062 0-8-3.585938-8-8v-256c0-4.40625 3.585938-8 8-8h16c4.414062 0 8 3.59375 8 8zm0 0" fill="#null"/><path d="m248 0c-74.992188 0-136 61.007812-136 136s61.007812 136 136 136 136-61.007812 136-136-61.007812-136-136-136zm-8 216v-72h-40l24-104h56l-16 56h32zm0 0" fill="#null"/><path d="m232 252.054688v-100.054688h-42.054688l27.6875-120h72.976563l-16 56h33.949219zm-21.945312-116.054688h37.945312v43.945312l35.441406-75.945312h-30.050781l16-56h-39.023437zm0 0" fill="#null"/></svg>
